<?xml version="1.0" encoding="UTF-8"?>
<svg width="638px" height="399px" viewBox="0 0 638 399" version="1.1" xmlns="http://www.w3.org/2000/svg" xmlns:xlink="http://www.w3.org/1999/xlink">
    <!-- Generator: Sketch 55.1 (78136) - https://sketchapp.com -->
    <title>Illustrations / business travel insurance</title>
    <desc>Created with Sketch.</desc>
    <defs>
        <linearGradient x1="40.2992548%" y1="48.2072344%" x2="77.2241313%" y2="53.4648274%" id="linearGradient-1">
            <stop stop-color="#387DE7" offset="0%"></stop>
            <stop stop-color="#428DFF" stop-opacity="0.0596693841" offset="100%"></stop>
        </linearGradient>
        <linearGradient x1="96.6971543%" y1="49.5231813%" x2="7.19759964%" y2="52.8491723%" id="linearGradient-2">
            <stop stop-color="#A3A3A3" offset="0%"></stop>
            <stop stop-color="#E0E0E0" stop-opacity="0" offset="100%"></stop>
        </linearGradient>
        <linearGradient x1="50%" y1="-61.2182653%" x2="-62.3772955%" y2="73.8777506%" id="linearGradient-3">
            <stop stop-color="#DDEAFF" stop-opacity="0.268512228" offset="0%"></stop>
            <stop stop-color="#428DFF" stop-opacity="0" offset="100%"></stop>
        </linearGradient>
        <linearGradient x1="50%" y1="-62.7751322%" x2="59.7822373%" y2="106.544179%" id="linearGradient-4">
            <stop stop-color="#DDEAFF" stop-opacity="0.268512228" offset="0%"></stop>
            <stop stop-color="#428DFF" stop-opacity="0" offset="100%"></stop>
        </linearGradient>
        <linearGradient x1="50%" y1="-62.7751322%" x2="-62.3772955%" y2="74.2119985%" id="linearGradient-5">
            <stop stop-color="#DDEAFF" stop-opacity="0.268512228" offset="0%"></stop>
            <stop stop-color="#428DFF" stop-opacity="0" offset="100%"></stop>
        </linearGradient>
        <linearGradient x1="50%" y1="-61.2066372%" x2="-62.3772955%" y2="73.8752541%" id="linearGradient-6">
            <stop stop-color="#DDEAFF" stop-opacity="0.268512228" offset="0%"></stop>
            <stop stop-color="#428DFF" stop-opacity="0" offset="100%"></stop>
        </linearGradient>
        <polygon id="path-7" points="151 0 302 149 0 149"></polygon>
        <linearGradient x1="50%" y1="-62.7751322%" x2="25.3777225%" y2="74.2119985%" id="linearGradient-9">
            <stop stop-color="#DDEAFF" stop-opacity="0.268512228" offset="0%"></stop>
            <stop stop-color="#428DFF" stop-opacity="0" offset="100%"></stop>
        </linearGradient>
        <linearGradient x1="50%" y1="3.96755792%" x2="-62.3772955%" y2="59.8828296%" id="linearGradient-10">
            <stop stop-color="#DDEAFF" stop-opacity="0.268512228" offset="0%"></stop>
            <stop stop-color="#428DFF" stop-opacity="0" offset="100%"></stop>
        </linearGradient>
        <linearGradient x1="50%" y1="-62.7751322%" x2="27.193501%" y2="74.2119985%" id="linearGradient-11">
            <stop stop-color="#DDEAFF" stop-opacity="0.268512228" offset="0%"></stop>
            <stop stop-color="#428DFF" stop-opacity="0" offset="100%"></stop>
        </linearGradient>
        <linearGradient x1="50%" y1="-62.7751322%" x2="46.4823912%" y2="74.2119985%" id="linearGradient-12">
            <stop stop-color="#DDEAFF" stop-opacity="0.268512228" offset="0%"></stop>
            <stop stop-color="#428DFF" stop-opacity="0" offset="100%"></stop>
        </linearGradient>
        <linearGradient x1="50%" y1="-62.7751322%" x2="44.8045875%" y2="74.2119985%" id="linearGradient-13">
            <stop stop-color="#DDEAFF" stop-opacity="0.268512228" offset="0%"></stop>
            <stop stop-color="#428DFF" stop-opacity="0" offset="100%"></stop>
        </linearGradient>
        <linearGradient x1="50%" y1="-62.7751322%" x2="21.3409802%" y2="74.2119985%" id="linearGradient-14">
            <stop stop-color="#DDEAFF" stop-opacity="0.268512228" offset="0%"></stop>
            <stop stop-color="#428DFF" stop-opacity="0" offset="100%"></stop>
        </linearGradient>
        <linearGradient x1="96.6971543%" y1="49.849498%" x2="7.19759964%" y2="50.8993064%" id="linearGradient-15">
            <stop stop-color="#387DE7" offset="0%"></stop>
            <stop stop-color="#428DFF" stop-opacity="0" offset="100%"></stop>
        </linearGradient>
        <path d="M9.17225042,30.9002202 C12.7981638,30.9002202 17.6556138,18.5435819 13.3677204,15.0433856 C9.07982702,11.5431893 10.0744715,0.708592526 6.4485581,0.708592526 C2.82264467,0.708592526 -1.77366454,11.1365218 3.26384803,17.0878818 C8.30136061,23.0392417 5.546337,30.9002202 9.17225042,30.9002202 Z" id="path-16"></path>
        <path d="M36.6890017,134.355797 C51.1926554,134.355797 70.6224553,80.2285895 53.4708817,64.8962761 C36.3193081,49.5639628 40.2978861,2.10392953 25.7942324,2.10392953 C11.2905787,2.10392953 -7.09465817,47.7825904 13.0553921,73.8520183 C33.2054424,99.9214462 22.185348,134.355797 36.6890017,134.355797 Z" id="path-18"></path>
        <path d="M35.5919,141.102211 C47.6662336,141.102211 63.8415982,90.8870991 49.5628636,76.6629432 C35.284129,62.4387874 38.5963067,18.4089731 26.521973,18.4089731 C14.4476394,18.4089731 -0.858123442,60.7861653 15.9168517,84.9714006 C32.6918268,109.156636 23.5175663,141.102211 35.5919,141.102211 Z" id="path-20"></path>
        <path d="M36.6890017,134.355797 C51.1926554,134.355797 70.6224553,80.2285895 53.4708817,64.8962761 C36.3193081,49.5639628 40.2978861,2.10392953 25.7942324,2.10392953 C11.2905787,2.10392953 -7.09465817,47.7825904 13.0553921,73.8520183 C33.2054424,99.9214462 22.185348,134.355797 36.6890017,134.355797 Z" id="path-22"></path>
        <path d="M36.6370743,140.919617 C49.4977033,140.919617 66.7264274,90.9646338 51.5178441,76.8141632 C36.3092608,62.6636926 39.8371316,18.8619655 26.9765026,18.8619655 C14.1158735,18.8619655 -2.18661931,61.0196316 15.6807627,85.0795803 C33.5481448,109.139529 23.7764452,140.919617 36.6370743,140.919617 Z" id="path-24"></path>
        <path d="M8.59898477,34.0458727 C11.9982786,34.0458727 16.552138,20.4313246 12.5322379,16.5748072 C8.51233783,12.7182897 9.44481705,0.780727477 6.04552322,0.780727477 C2.64622938,0.780727477 -1.66281051,12.2702234 3.05985753,18.8274337 C7.78252557,25.384644 5.19969093,34.0458727 8.59898477,34.0458727 Z" id="path-26"></path>
        <path d="M8.59898477,34.0458727 C11.9982786,34.0458727 16.552138,20.4313246 12.5322379,16.5748072 C8.51233783,12.7182897 9.44481705,0.780727477 6.04552322,0.780727477 C2.64622938,0.780727477 -1.66281051,12.2702234 3.05985753,18.8274337 C7.78252557,25.384644 5.19969093,34.0458727 8.59898477,34.0458727 Z" id="path-28"></path>
        <path d="M11.465313,33.1293917 C15.9977048,33.1293917 22.0695173,19.8813337 16.7096505,16.1286298 C11.3497838,12.375926 12.5930894,0.759711069 8.06069762,0.759711069 C3.52830584,0.759711069 -2.21708068,11.9399212 4.07981004,18.3206179 C10.3767008,24.7013146 6.93292124,33.1293917 11.465313,33.1293917 Z" id="path-30"></path>
        <path d="M11.465313,37.7314114 C15.9977048,37.7314114 22.0695173,22.6430593 16.7096505,18.3690656 C11.3497838,14.0950719 12.5930894,0.865242899 8.06069762,0.865242899 C3.52830584,0.865242899 -2.21708068,13.5985014 4.07981004,20.8655437 C10.3767008,28.1325861 6.93292124,37.7314114 11.465313,37.7314114 Z" id="path-32"></path>
        <linearGradient x1="47.2416848%" y1="52.4607614%" x2="38.1779234%" y2="13.9254678%" id="linearGradient-34">
            <stop stop-color="#FFFFFF" stop-opacity="0" offset="0%"></stop>
            <stop stop-color="#428DFF" stop-opacity="0.420148324" offset="100%"></stop>
        </linearGradient>
        <linearGradient x1="47.2416848%" y1="52.4643576%" x2="36.2617168%" y2="25.2609543%" id="linearGradient-35">
            <stop stop-color="#ECF0F5" stop-opacity="0" offset="0%"></stop>
            <stop stop-color="#428DFF" stop-opacity="0.394333107" offset="100%"></stop>
        </linearGradient>
        <linearGradient x1="50%" y1="35.5376947%" x2="50%" y2="100%" id="linearGradient-36">
            <stop stop-color="#428DFF" offset="0%"></stop>
            <stop stop-color="#428DFF" stop-opacity="0" offset="100%"></stop>
        </linearGradient>
        <ellipse id="path-37" cx="14.4186879" cy="19.0312913" rx="14.4186879" ry="14.5771593"></ellipse>
        <linearGradient x1="50%" y1="38.4557337%" x2="50%" y2="123.903213%" id="linearGradient-38">
            <stop stop-color="#B1F5E8" offset="0%"></stop>
            <stop stop-color="#C0D9FD" stop-opacity="0" offset="100%"></stop>
        </linearGradient>
        <path d="M8.01038218,38.0625825 L20.8269937,38.0625825 L20.8269937,42.1117934 C20.8269937,44.3481109 19.0178696,46.1610043 16.7717377,46.1610043 L12.0656382,46.1610043 C9.82598213,46.1610043 8.01038218,44.3435604 8.01038218,42.1117934 L8.01038218,38.0625825 Z" id="path-39"></path>
        <linearGradient x1="50%" y1="33.6050651%" x2="50%" y2="100%" id="linearGradient-40">
            <stop stop-color="#C0D9FD" offset="0%"></stop>
            <stop stop-color="#C0D9FC" stop-opacity="0" offset="100%"></stop>
        </linearGradient>
        <ellipse id="path-41" cx="14.6189475" cy="19.0312913" rx="5.00648886" ry="14.5771593"></ellipse>
    </defs>
    <g id="Illustrations-/-business-travel-insurance" stroke="none" stroke-width="1" fill="none" fill-rule="evenodd">
        <g id="expat-illustrations">
            <path d="M6.00251794,293.400574 C-29.108653,251.659365 97.253605,210.988697 191.707698,219.022324 C286.161791,227.055951 304.369634,244.12741 438.902383,235.089579 C573.435133,226.051748 584.607169,244.965969 557.789808,257.455422 C531.720681,269.596404 644.565265,265.081399 619.280022,293.930235 C593.994779,322.779072 303.180466,307.409646 230.199218,289.622076 C157.21797,271.834506 41.1136889,335.141783 6.00251794,293.400574 Z" id="Path-34" fill="#F4F6F9"></path>
            <path d="M7.0685912,297.771552 C-33.0586538,235.26371 173.295724,206.876277 335.831753,272.297139 C383.585456,291.518037 434.28921,309.573182 491.559855,289.123213 C543.936091,270.420918 650.14775,287.548325 619.570456,353.169243 C588.993162,418.790162 360.798889,412.12437 231.622186,344.816663 C102.445484,277.508955 46.5510143,359.274929 7.0685912,297.771552 Z" id="Path-34-Copy-2" fill="url(#linearGradient-1)" opacity="0.187332589"></path>
            <g id="landmarks" transform="translate(37.000000, 0.000000)">
                <path d="M370.169185,342.61801 C379.623362,339.150871 462.858135,328.313489 498.239669,311.792676 C521.170917,301.085315 580,307.936182 580,292.011373 C580,278.01481 502.286137,263.764494 456.06134,263.764494 C417.683699,263.764494 402.017745,267.972992 375.900646,263.764494 C339.24111,257.857193 341.834296,258.765685 324.409845,267.459096 C309.902165,274.697271 253.037953,314.153473 243.867816,323.934963 C234.69768,333.716454 299.651663,368.478966 370.169185,342.61801 Z" id="Oval-3-Copy-2" fill="url(#linearGradient-2)" opacity="0.300000012"></path>
                <g id="eye" transform="translate(344.000000, 118.000000)">
                    <path d="M70.5,17.275888 L70.5,65.280394 M86.116899,19.6116497 L72.0817397,65.5185872 M100.356441,26.4129277 L73.5126619,66.2104668 M111.962755,37.0798702 L74.6562475,67.2900847 M120.065761,51.061454 L75.2496937,68.2647304 M123.536655,66.4072658 L75.649085,69.7558909 M122.33006,82.0917485 L75.5559063,71.2930843 M116.552373,96.7316221 L74.9792518,72.7293691 M106.713161,109.035734 L73.9741666,73.9274607 M93.6802135,117.918939 L72.6364232,74.7727744 M78.6030054,122.597808 L71.0934462,75.1843171 M62.3969946,122.597808 L69.9065538,75.1843171 M47.3197865,117.918939 L68.3635768,74.7727744 M34.286839,109.035734 L67.0258334,73.9274607 M24.4476265,96.7316221 L66.0207482,72.7293691 M18.66994,82.0917485 L65.4440937,71.2930843 M17.4633455,66.4072658 L65.350915,69.7558909 M20.9342391,51.061454 L65.7503063,68.2647304 M29.0372445,37.0798702 L66.3437525,67.2900847 M40.643559,26.4129277 L67.4873381,66.2104668 M54.883101,19.6116497 L68.9182603,65.5185872" id="Line" stroke="url(#linearGradient-3)" stroke-linecap="square"></path>
                    <polygon id="Rectangle-10" stroke="url(#linearGradient-4)" stroke-width="7" points="70.5 75 104 179 37 179"></polygon>
                    <circle id="Oval-5" stroke="url(#linearGradient-5)" stroke-width="3" cx="70" cy="70" r="60"></circle>
                    <circle id="Oval-5-Copy" stroke="url(#linearGradient-5)" stroke-width="3" cx="70" cy="70" r="54"></circle>
                    <circle id="Oval-5-Copy-2" fill="url(#linearGradient-5)" cx="70.5" cy="69.5" r="6.5"></circle>
                    <path d="M69.5,9.94791783 C66.7398788,9.94791783 64.5023585,7.72100057 64.5023585,4.97395891 C64.5023585,2.22691726 66.7398788,0 69.5,0 C72.2601212,0 74.4976415,2.22691726 74.4976415,4.97395891 C74.4976415,7.72100057 72.2601212,9.94791783 69.5,9.94791783 Z M87.1139662,12.5910304 C84.4744492,11.784049 82.9857855,9.00024985 83.7889428,6.37324085 C84.5921,3.74623185 87.3829389,2.27080791 90.0224559,3.07778924 C92.6619729,3.88477057 94.1506366,6.66856976 93.3474794,9.29557876 C92.5443221,11.9225878 89.7534832,13.3980117 87.1139662,12.5910304 Z M103.160725,20.2851977 C100.872481,18.7417575 100.262769,15.644354 101.798895,13.3669532 C103.335022,11.0895525 106.435286,10.4945599 108.72353,12.038 C111.011775,13.5814402 111.621487,16.6788438 110.08536,18.9562445 C108.549234,21.2336452 105.44897,21.8286379 103.160725,20.2851977 Z M116.21251,32.3458326 C114.475509,30.2008155 114.798032,27.0604912 116.932884,25.3317219 C119.067736,23.6029526 122.206493,23.940388 123.943494,26.085405 C125.680494,28.230422 125.357972,31.3707463 123.223119,33.0995157 C121.088267,34.828285 117.94951,34.4908496 116.21251,32.3458326 Z M125.076207,47.6190701 C124.087069,45.042275 125.364219,42.1553141 127.928804,41.1708624 C130.493388,40.1864107 133.37425,41.4772601 134.363389,44.0540552 C135.352528,46.6308503 134.075377,49.5178112 131.510793,50.5022629 C128.946208,51.4867146 126.065346,50.1958652 125.076207,47.6190701 Z M129.048959,64.8945524 C128.856422,62.1411548 130.921833,59.7537431 133.662183,59.5621191 C136.402533,59.3704952 138.780108,61.4472231 138.972644,64.2006208 C139.16518,66.9540184 137.099769,69.3414301 134.359419,69.5330541 C131.619069,69.724678 129.241495,67.6479501 129.048959,64.8945524 Z M127.72326,82.5672368 C128.344152,79.8778574 131.017326,78.1986319 133.693961,78.8165819 C136.370596,79.4345318 138.037105,82.115652 137.416213,84.8050314 C136.795321,87.4944108 134.122147,89.1736363 131.445512,88.5556863 C128.768877,87.9377364 127.102368,85.2566162 127.72326,82.5672368 Z M121.217074,99.0646817 C122.597135,96.6743467 125.644462,95.8500559 128.02347,97.2235767 C130.402478,98.5970975 131.212284,101.648306 129.832224,104.038641 C128.452163,106.428976 125.404836,107.253266 123.025828,105.879746 C120.64682,104.506225 119.837014,101.455017 121.217074,99.0646817 Z M110.109294,112.919014 C112.127919,111.036616 115.283091,111.139295 117.156569,113.148354 C119.030047,115.157413 118.912382,118.312063 116.893757,120.194461 C114.875132,122.076859 111.71996,121.97418 109.846482,119.965121 C107.973004,117.956062 108.090669,114.801412 110.109294,112.919014 Z M95.3882333,122.897531 C97.8690138,121.687574 100.8563,122.708249 102.060524,125.177274 C103.264748,127.646299 102.229894,130.628703 99.7491134,131.83866 C97.268333,133.048618 94.2810468,132.027942 93.076823,129.558918 C91.8725992,127.089893 92.9074528,124.107489 95.3882333,122.897531 Z M78.3636978,128.112379 C81.0898373,127.680601 83.6481766,129.530075 84.0779086,132.243296 C84.5076406,134.956517 82.6460345,137.506043 79.919895,137.937821 C77.1937555,138.369599 74.6354162,136.520124 74.2056842,133.806903 C73.7759522,131.093682 75.6375583,128.544157 78.3636978,128.112379 Z M60.6363022,128.112379 C63.3624417,128.544157 65.2240478,131.093682 64.7943158,133.806903 C64.3645838,136.520124 61.8062445,138.369599 59.080105,137.937821 C56.3539655,137.506043 54.4923594,134.956517 54.9220914,132.243296 C55.3518234,129.530075 57.9101627,127.680601 60.6363022,128.112379 Z M43.6117667,122.897531 C46.0925472,124.107489 47.1274008,127.089893 45.923177,129.558918 C44.7189532,132.027942 41.731667,133.048618 39.2508866,131.83866 C36.7701061,130.628703 35.7352524,127.646299 36.9394762,125.177274 C38.1437,122.708249 41.1309862,121.687574 43.6117667,122.897531 Z M28.8907063,112.919014 C30.9093312,114.801412 31.026996,117.956062 29.1535181,119.965121 C27.2800402,121.97418 24.1248675,122.076859 22.1062427,120.194461 C20.0876178,118.312063 19.969953,115.157413 21.8434309,113.148354 C23.7169088,111.139295 26.8720815,111.036616 28.8907063,112.919014 Z M17.7829258,99.0646817 C19.1629864,101.455017 18.3531796,104.506225 15.9741717,105.879746 C13.5951639,107.253266 10.5478368,106.428976 9.16777623,104.038641 C7.78771565,101.648306 8.59752242,98.5970975 10.9765303,97.2235767 C13.3555381,95.8500559 16.4028652,96.6743467 17.7829258,99.0646817 Z M11.2767401,82.5672368 C11.8976323,85.2566162 10.2311233,87.9377364 7.55448816,88.5556863 C4.877853,89.1736363 2.20467894,87.4944108 1.58378677,84.8050314 C0.962894604,82.115652 2.62940357,79.4345318 5.30603872,78.8165819 C7.98267388,78.1986319 10.6558479,79.8778574 11.2767401,82.5672368 Z M9.95104134,64.8945524 C9.75850502,67.6479501 7.3809309,69.724678 4.6405809,69.5330541 C1.9002309,69.3414301 -0.165180179,66.9540184 0.0273561406,64.2006208 C0.21989246,61.4472231 2.59746659,59.3704952 5.33781659,59.5621191 C8.07816659,59.7537431 10.1435777,62.1411548 9.95104134,64.8945524 Z M13.9237925,47.6190701 C12.9346536,50.1958652 10.0537916,51.4867146 7.48920731,50.5022629 C4.92462299,49.5178112 3.64747219,46.6308503 4.63661115,44.0540552 C5.62575011,41.4772601 8.50661204,40.1864107 11.0711964,41.1708624 C13.6357807,42.1553141 14.9129315,45.042275 13.9237925,47.6190701 Z M22.7874903,32.3458326 C21.0504898,34.4908496 17.9117329,34.828285 15.7768806,33.0995157 C13.6420283,31.3707463 13.3195056,28.230422 15.0565062,26.085405 C16.7935067,23.940388 19.9322636,23.6029526 22.0671159,25.3317219 C24.2019683,27.0604912 24.5244909,30.2008155 22.7874903,32.3458326 Z M35.8392746,20.2851977 C33.5510305,21.8286379 30.4507658,21.2336452 28.9146396,18.9562445 C27.3785134,16.6788438 27.9882254,13.5814402 30.2764696,12.038 C32.5647137,10.4945599 35.6649785,11.0895525 37.2011047,13.3669532 C38.7372309,15.644354 38.1275188,18.7417575 35.8392746,20.2851977 Z M51.8860338,12.5910304 C49.2465168,13.3980117 46.4556779,11.9225878 45.6525206,9.29557876 C44.8493634,6.66856976 46.3380271,3.88477057 48.9775441,3.07778924 C51.6170611,2.27080791 54.4079,3.74623185 55.2110572,6.37324085 C56.0142145,9.00024985 54.5255508,11.784049 51.8860338,12.5910304 Z" id="Oval-3" fill="url(#linearGradient-6)"></path>
                </g>
                <g id="Louvre" transform="translate(272.000000, 140.000000)">
                    <g id="Group-3" transform="translate(0.000000, 2.000000)">
                        <mask id="mask-8" fill="white">
                            <use xlink:href="#path-7"></use>
                        </mask>
                        <use id="Mask" fill="#BDD7FF" xlink:href="#path-7"></use>
                        <g id="Group-Copy" mask="url(#mask-8)" stroke="#65A2FF" stroke-linecap="square" stroke-width="4">
                            <g transform="translate(160.000000, 120.500000) scale(-1, 1) translate(-160.000000, -120.500000) translate(47.000000, 22.000000)">
                                <path d="M99.4586777,0.469047619 L225.533058,127.111905" id="Line-2"></path>
                                <path d="M35.9545455,49.25 L162.028926,175.892857" id="Line-2-Copy-2"></path>
                                <path d="M0.466942149,69.8880952 L126.541322,196.530952" id="Line-2-Copy-3"></path>
                                <path d="M57.4338843,14.5404762 L183.508264,141.183333" id="Line-2-Copy"></path>
                            </g>
                        </g>
                        <g id="Group" mask="url(#mask-8)" stroke="#65A2FF" stroke-linecap="square" stroke-width="4">
                            <g transform="translate(21.000000, 22.000000)">
                                <path d="M106.206827,0.468137255 L232.532129,126.865196" id="Line-2"></path>
                                <path d="M64.0983936,14.5122549 L190.423695,140.909314" id="Line-2-Copy"></path>
                                <path d="M29.4759036,37.9191176 L155.801205,164.316176" id="Line-2-Copy-4"></path>
                                <path d="M0.467871486,64.1348039 L126.793173,190.531863" id="Line-2-Copy-5"></path>
                            </g>
                        </g>
                        <g id="Group-2" mask="url(#mask-8)" fill="#428DFF">
                            <g transform="translate(96.000000, 99.000000)" id="Rectangle-44-Copy">
                                <polygon points="53 0 106 52 0 52"></polygon>
                            </g>
                        </g>
                    </g>
                    <polygon id="Rectangle" fill-opacity="0.214051178" fill="#428DFF" transform="translate(209.000000, 93.500000) rotate(-45.000000) translate(-209.000000, -93.500000) " points="184.281023 -13 232.231853 -12.7472028 234 200 184 149.364975"></polygon>
                </g>
                <path d="M439,246.578826 L464.356887,77.177136 L477.119676,78.8175056 L479.085325,61 L518.460968,66.2176782 L516.361026,84.0186537 L527,84.9462841 L506.597443,249 L439,246.578826 Z M484.085936,69.0860343 L483.538611,73.5436419 L490.486434,74.3967273 L491.03376,69.9391197 C491.271093,68.0061909 489.906066,66.2653884 487.987477,66.0298154 C486.072793,65.7947217 484.32211,67.1625582 484.085936,69.0860343 Z M493.085936,73.0860343 L492.538611,77.5436419 L499.486434,78.3967273 L500.03376,73.9391197 C500.271093,72.0061909 498.906066,70.2653884 496.987477,70.0298154 C495.072793,69.7947217 493.32211,71.1625582 493.085936,73.0860343 Z M466.677918,83.9176403 L465.215303,95.8296806 L467.200395,96.0734193 L468.66301,84.161379 C468.730162,83.6144733 468.340319,83.1157566 467.792151,83.04845 C467.240161,82.9806742 466.745124,83.3702932 466.677918,83.9176403 Z M462.677918,98.9176403 L461.215303,110.829681 L463.200395,111.073419 L464.66301,99.161379 C464.730162,98.6144733 464.340319,98.1157566 463.792151,98.04845 C463.240161,97.9806742 462.745124,98.3702932 462.677918,98.9176403 Z M461.677918,114.91764 L460.215303,126.829681 L462.200395,127.073419 L463.66301,115.161379 C463.730162,114.614473 463.340319,114.115757 462.792151,114.04845 C462.240161,113.980674 461.745124,114.370293 461.677918,114.91764 Z M459.677918,130.91764 L458.215303,142.829681 L460.200395,143.073419 L461.66301,131.161379 C461.730162,130.614473 461.340319,130.115757 460.792151,130.04845 C460.240161,129.980674 459.745124,130.370293 459.677918,130.91764 Z M455.677918,146.91764 L454.215303,158.829681 L456.200395,159.073419 L457.66301,147.161379 C457.730162,146.614473 457.340319,146.115757 456.792151,146.04845 C456.240161,145.980674 455.745124,146.370293 455.677918,146.91764 Z M453.677918,164.91764 L452.215303,176.829681 L454.200395,177.073419 L455.66301,165.161379 C455.730162,164.614473 455.340319,164.115757 454.792151,164.04845 C454.240161,163.980674 453.745124,164.370293 453.677918,164.91764 Z M472.505316,85.2316241 L471.226484,95.6468766 L476.189215,96.2562233 L477.468047,85.8409708 C477.637068,84.4644021 476.662571,83.2167165 475.292151,83.04845 C473.912176,82.8790104 472.674022,83.8576239 472.505316,85.2316241 Z M468.505316,100.231624 L467.226484,110.646877 L472.189215,111.256223 L473.468047,100.840971 C473.637068,99.4644021 472.662571,98.2167165 471.292151,98.04845 C469.912176,97.8790104 468.674022,98.8576239 468.505316,100.231624 Z M467.505316,116.231624 L466.226484,126.646877 L471.189215,127.256223 L472.468047,116.840971 C472.637068,115.464402 471.662571,114.216716 470.292151,114.04845 C468.912176,113.87901 467.674022,114.857624 467.505316,116.231624 Z M464.505316,132.231624 L463.226484,142.646877 L468.189215,143.256223 L469.468047,132.840971 C469.637068,131.464402 468.662571,130.216716 467.292151,130.04845 C465.912176,129.87901 464.674022,130.857624 464.505316,132.231624 Z M461.505316,151.231624 L460.226484,161.646877 L465.189215,162.256223 L466.468047,151.840971 C466.637068,150.464402 465.662571,149.216716 464.292151,149.04845 C462.912176,148.87901 461.674022,149.857624 461.505316,151.231624 Z M460.505316,168.231624 L459.226484,178.646877 L464.189215,179.256223 L465.468047,168.840971 C465.637068,167.464402 464.662571,166.216716 463.292151,166.04845 C461.912176,165.87901 460.674022,166.857624 460.505316,168.231624 Z M478.449052,85.6592751 L477.230211,95.585942 L483.185488,96.317158 L484.404329,86.3904912 C484.606208,84.7463173 483.436655,83.2503698 481.792151,83.04845 C480.150993,82.8469411 478.65089,84.0154365 478.449052,85.6592751 Z M474.449052,100.659275 L473.230211,110.585942 L479.185488,111.317158 L480.404329,101.390491 C480.606208,99.7463173 479.436655,98.2503698 477.792151,98.04845 C476.150993,97.8469411 474.65089,99.0154365 474.449052,100.659275 Z M474.449052,116.659275 L473.230211,126.585942 L479.185488,127.317158 L480.404329,117.390491 C480.606208,115.746317 479.436655,114.25037 477.792151,114.04845 C476.150993,113.846941 474.65089,115.015436 474.449052,116.659275 Z M471.449052,132.659275 L470.230211,142.585942 L476.185488,143.317158 L477.404329,133.390491 C477.606208,131.746317 476.436655,130.25037 474.792151,130.04845 C473.150993,129.846941 471.65089,131.015436 471.449052,132.659275 Z M468.449052,149.659275 L467.230211,159.585942 L473.185488,160.317158 L474.404329,150.390491 C474.606208,148.746317 473.436655,147.25037 471.792151,147.04845 C470.150993,146.846941 468.65089,148.015436 468.449052,149.659275 Z M467.449052,167.659275 L466.230211,177.585942 L472.185488,178.317158 L473.404329,168.390491 C473.606208,166.746317 472.436655,165.25037 470.792151,165.04845 C469.150993,164.846941 467.65089,166.015436 467.449052,167.659275 Z M486.449052,86.6592751 L485.230211,96.585942 L491.185488,97.317158 L492.404329,87.3904912 C492.606208,85.7463173 491.436655,84.2503698 489.792151,84.04845 C488.150993,83.8469411 486.65089,85.0154365 486.449052,86.6592751 Z M482.449052,102.659275 L481.230211,112.585942 L487.185488,113.317158 L488.404329,103.390491 C488.606208,101.746317 487.436655,100.25037 485.792151,100.04845 C484.150993,99.8469411 482.65089,101.015436 482.449052,102.659275 Z M481.449052,117.659275 L480.230211,127.585942 L486.185488,128.317158 L487.404329,118.390491 C487.606208,116.746317 486.436655,115.25037 484.792151,115.04845 C483.150993,114.846941 481.65089,116.015436 481.449052,117.659275 Z M479.449052,134.659275 L478.230211,144.585942 L484.185488,145.317158 L485.404329,135.390491 C485.606208,133.746317 484.436655,132.25037 482.792151,132.04845 C481.150993,131.846941 479.65089,133.015436 479.449052,134.659275 Z M477.449052,152.659275 L476.230211,162.585942 L482.185488,163.317158 L483.404329,153.390491 C483.606208,151.746317 482.436655,150.25037 480.792151,150.04845 C479.150993,149.846941 477.65089,151.015436 477.449052,152.659275 Z M475.449052,169.659275 L474.230211,179.585942 L480.185488,180.317158 L481.404329,170.390491 C481.606208,168.746317 480.436655,167.25037 478.792151,167.04845 C477.150993,166.846941 475.65089,168.015436 475.449052,169.659275 Z M495.449052,88.6592751 L494.230211,98.585942 L500.185488,99.317158 L501.404329,89.3904912 C501.606208,87.7463173 500.436655,86.2503698 498.792151,86.04845 C497.150993,85.8469411 495.65089,87.0154365 495.449052,88.6592751 Z M492.449052,103.659275 L491.230211,113.585942 L497.185488,114.317158 L498.404329,104.390491 C498.606208,102.746317 497.436655,101.25037 495.792151,101.04845 C494.150993,100.846941 492.65089,102.015436 492.449052,103.659275 Z M489.449052,119.659275 L488.230211,129.585942 L494.185488,130.317158 L495.404329,120.390491 C495.606208,118.746317 494.436655,117.25037 492.792151,117.04845 C491.150993,116.846941 489.65089,118.015436 489.449052,119.659275 Z M487.449052,134.659275 L486.230211,144.585942 L492.185488,145.317158 L493.404329,135.390491 C493.606208,133.746317 492.436655,132.25037 490.792151,132.04845 C489.150993,131.846941 487.65089,133.015436 487.449052,134.659275 Z M485.449052,152.659275 L484.230211,162.585942 L490.185488,163.317158 L491.404329,153.390491 C491.606208,151.746317 490.436655,150.25037 488.792151,150.04845 C487.150993,149.846941 485.65089,151.015436 485.449052,152.659275 Z M484.449052,169.659275 L483.230211,179.585942 L489.185488,180.317158 L490.404329,170.390491 C490.606208,168.746317 489.436655,167.25037 487.792151,167.04845 C486.150993,166.846941 484.65089,168.015436 484.449052,169.659275 Z M504.449052,89.6592751 L503.230211,99.585942 L509.185488,100.317158 L510.404329,90.3904912 C510.606208,88.7463173 509.436655,87.2503698 507.792151,87.04845 C506.150993,86.8469411 504.65089,88.0154365 504.449052,89.6592751 Z M500.449052,104.659275 L499.230211,114.585942 L505.185488,115.317158 L506.404329,105.390491 C506.606208,103.746317 505.436655,102.25037 503.792151,102.04845 C502.150993,101.846941 500.65089,103.015436 500.449052,104.659275 Z M500.449052,119.659275 L499.230211,129.585942 L505.185488,130.317158 L506.404329,120.390491 C506.606208,118.746317 505.436655,117.25037 503.792151,117.04845 C502.150993,116.846941 500.65089,118.015436 500.449052,119.659275 Z M495.449052,137.659275 L494.230211,147.585942 L500.185488,148.317158 L501.404329,138.390491 C501.606208,136.746317 500.436655,135.25037 498.792151,135.04845 C497.150993,134.846941 495.65089,136.015436 495.449052,137.659275 Z M493.449052,153.659275 L492.230211,163.585942 L498.185488,164.317158 L499.404329,154.390491 C499.606208,152.746317 498.436655,151.25037 496.792151,151.04845 C495.150993,150.846941 493.65089,152.015436 493.449052,153.659275 Z M492.449052,170.659275 L491.230211,180.585942 L497.185488,181.317158 L498.404329,171.390491 C498.606208,169.746317 497.436655,168.25037 495.792151,168.04845 C494.150993,167.846941 492.65089,169.015436 492.449052,170.659275 Z M512.505316,90.2316241 L511.226484,100.646877 L516.189215,101.256223 L517.468047,90.8409708 C517.637068,89.4644021 516.662571,88.2167165 515.292151,88.04845 C513.912176,87.8790104 512.674022,88.8576239 512.505316,90.2316241 Z M508.505316,105.231624 L507.226484,115.646877 L512.189215,116.256223 L513.468047,105.840971 C513.637068,104.464402 512.662571,103.216716 511.292151,103.04845 C509.912176,102.87901 508.674022,103.857624 508.505316,105.231624 Z M508.505316,121.231624 L507.226484,131.646877 L512.189215,132.256223 L513.468047,121.840971 C513.637068,120.464402 512.662571,119.216716 511.292151,119.04845 C509.912176,118.87901 508.674022,119.857624 508.505316,121.231624 Z M505.505316,137.231624 L504.226484,147.646877 L509.189215,148.256223 L510.468047,137.840971 C510.637068,136.464402 509.662571,135.216716 508.292151,135.04845 C506.912176,134.87901 505.674022,135.857624 505.505316,137.231624 Z M501.505316,154.231624 L500.226484,164.646877 L505.189215,165.256223 L506.468047,154.840971 C506.637068,153.464402 505.662571,152.216716 504.292151,152.04845 C502.912176,151.87901 501.674022,152.857624 501.505316,154.231624 Z M500.505316,172.231624 L499.226484,182.646877 L504.189215,183.256223 L505.468047,172.840971 C505.637068,171.464402 504.662571,170.216716 503.292151,170.04845 C501.912176,169.87901 500.674022,170.857624 500.505316,172.231624 Z M519.677918,89.9176403 L518.215303,101.829681 L520.200395,102.073419 L521.66301,90.161379 C521.730162,89.6144733 521.340319,89.1157566 520.792151,89.04845 C520.240161,88.9806742 519.745124,89.3702932 519.677918,89.9176403 Z M515.677918,104.91764 L514.215303,116.829681 L516.200395,117.073419 L517.66301,105.161379 C517.730162,104.614473 517.340319,104.115757 516.792151,104.04845 C516.240161,103.980674 515.745124,104.370293 515.677918,104.91764 Z M515.677918,122.91764 L514.215303,134.829681 L516.200395,135.073419 L517.66301,123.161379 C517.730162,122.614473 517.340319,122.115757 516.792151,122.04845 C516.240161,121.980674 515.745124,122.370293 515.677918,122.91764 Z M512.677918,135.91764 L511.215303,147.829681 L513.200395,148.073419 L514.66301,136.161379 C514.730162,135.614473 514.340319,135.115757 513.792151,135.04845 C513.240161,134.980674 512.745124,135.370293 512.677918,135.91764 Z M509.677918,154.91764 L508.215303,166.829681 L510.200395,167.073419 L511.66301,155.161379 C511.730162,154.614473 511.340319,154.115757 510.792151,154.04845 C510.240161,153.980674 509.745124,154.370293 509.677918,154.91764 Z M507.677918,171.91764 L506.215303,183.829681 L508.200395,184.073419 L509.66301,172.161379 C509.730162,171.614473 509.340319,171.115757 508.792151,171.04845 C508.240161,170.980674 507.745124,171.370293 507.677918,171.91764 Z M504.026088,71.0734573 L503.599546,74.5473688 L510.547369,75.4004542 L510.973912,71.9265427 C511.209005,70.0118583 509.845131,68.2616615 507.926543,68.0260885 C506.011858,67.7909948 504.261661,69.1548689 504.026088,71.0734573 Z" id="piza-tower" fill="url(#linearGradient-9)"></path>
                <path d="M127,252.722673 L137.196177,139.164833 C137.196177,139.164833 218.158163,123.41937 255.161361,131.121851 C257.456807,164.774387 277.463988,164.012043 277.463988,164.012043 L282.025358,183.774129 C282.025358,183.774129 340.774466,188.738646 342.413577,198.244956 C344.052687,207.751266 341.735382,267 341.735382,267 L127,252.722673 Z M139.164001,165.328705 L138,180.501178 L145.826267,181 L146.990268,165.827527 C147.141508,163.856141 145.512127,162.146564 143.350963,162.008818 C141.194197,161.871352 139.315232,163.357436 139.164001,165.328705 Z M137.164001,193.328705 L136,208.501178 L143.826267,209 L144.990268,193.827527 C145.141508,191.856141 143.512127,190.146564 141.350963,190.008818 C139.194197,189.871352 137.315232,191.357436 137.164001,193.328705 Z M150.884471,163.951039 L150,177.256819 L160.103002,178 L160.987472,164.69422 C161.182432,161.761291 159.078773,159.218382 156.288906,159.013158 C153.504716,158.808351 151.079391,161.018698 150.884471,163.951039 Z M147.884471,191.951039 L147,205.256819 L157.103002,206 L157.987472,192.69422 C158.182432,189.761291 156.078773,187.218382 153.288906,187.013158 C150.504716,186.808351 148.079391,189.018698 147.884471,191.951039 Z M285.159528,238.338711 L284,253.499361 L291.830701,254 L292.990229,238.83935 C293.141844,236.857007 291.511088,235.147103 289.3487,235.008855 C287.190712,234.870889 285.310755,236.361435 285.159528,238.338711 Z M162.884471,165.951039 L162,179.256819 L172.103002,180 L172.987472,166.69422 C173.182432,163.761291 171.078773,161.218382 168.288906,161.013158 C165.504716,160.808351 163.079391,163.018698 162.884471,165.951039 Z M161.884471,193.951039 L161,207.256819 L171.103002,208 L171.987472,194.69422 C172.182432,191.761291 170.078773,189.218382 167.288906,189.013158 C164.504716,188.808351 162.079391,191.018698 161.884471,193.951039 Z M295.438274,234.83548 L294,253.276067 L305.547223,254 L306.985497,235.559413 C307.209838,232.683056 304.804941,230.212694 301.616263,230.012786 C298.434074,229.813284 295.661606,231.972071 295.438274,234.83548 Z M176.884471,166.951039 L176,180.256819 L186.103002,181 L186.987472,167.69422 C187.182432,164.761291 185.078773,162.218382 182.288906,162.013158 C179.504716,161.808351 177.079391,164.018698 176.884471,166.951039 Z M174.884471,193.951039 L174,207.256819 L184.103002,208 L184.987472,194.69422 C185.182432,191.761291 183.078773,189.218382 180.288906,189.013158 C177.504716,188.808351 175.079391,191.018698 174.884471,193.951039 Z M309.438274,236.83548 L308,255.276067 L319.547223,256 L320.985497,237.559413 C321.209838,234.683056 318.804941,232.212694 315.616263,232.012786 C312.434074,231.813284 309.661606,233.972071 309.438274,236.83548 Z M191.884471,167.951039 L191,181.256819 L201.103002,182 L201.987472,168.69422 C202.182432,165.761291 200.078773,163.218382 197.288906,163.013158 C194.504716,162.808351 192.079391,165.018698 191.884471,167.951039 Z M189.884471,194.951039 L189,208.256819 L199.103002,209 L199.987472,195.69422 C200.182432,192.761291 198.078773,190.218382 195.288906,190.013158 C192.504716,189.808351 190.079391,192.018698 189.884471,194.951039 Z M322.671612,247.279274 L322,256.508198 L329.319311,257 L329.990923,247.771076 C330.132164,245.83022 328.608342,244.144507 326.58717,244.0087 C324.570111,243.873169 322.812943,245.337179 322.671612,247.279274 Z M205.884471,167.951039 L205,181.256819 L215.103002,182 L215.987472,168.69422 C216.182432,165.761291 214.078773,163.218382 211.288906,163.013158 C208.504716,162.808351 206.079391,165.018698 205.884471,167.951039 Z M204.884471,195.951039 L204,209.256819 L214.103002,210 L214.987472,196.69422 C215.182432,193.761291 213.078773,191.218382 210.288906,191.013158 C207.504716,190.808351 205.079391,193.018698 204.884471,195.951039 Z M219.884471,168.951039 L219,182.256819 L229.103002,183 L229.987472,169.69422 C230.182432,166.761291 228.078773,164.218382 225.288906,164.013158 C222.504716,163.808351 220.079391,166.018698 219.884471,168.951039 Z M218.884471,196.951039 L218,210.256819 L228.103002,211 L228.987472,197.69422 C229.182432,194.761291 227.078773,192.218382 224.288906,192.013158 C221.504716,191.808351 219.079391,194.018698 218.884471,196.951039 Z M274.884471,201.951039 L274,215.256819 L284.103002,216 L284.987472,202.69422 C285.182432,199.761291 283.078773,197.218382 280.288906,197.013158 C277.504716,196.808351 275.079391,199.018698 274.884471,201.951039 Z M232.884471,170.951039 L232,184.256819 L242.103002,185 L242.987472,171.69422 C243.182432,168.761291 241.078773,166.218382 238.288906,166.013158 C235.504716,165.808351 233.079391,168.018698 232.884471,170.951039 Z M232.884471,198.951039 L232,212.256819 L242.103002,213 L242.987472,199.69422 C243.182432,196.761291 241.078773,194.218382 238.288906,194.013158 C235.504716,193.808351 233.079391,196.018698 232.884471,198.951039 Z M289.884471,201.951039 L289,215.256819 L299.103002,216 L299.987472,202.69422 C300.182432,199.761291 298.078773,197.218382 295.288906,197.013158 C292.504716,196.808351 290.079391,199.018698 289.884471,201.951039 Z M246.884471,171.951039 L246,185.256819 L256.103002,186 L256.987472,172.69422 C257.182432,169.761291 255.078773,167.218382 252.288906,167.013158 C249.504716,166.808351 247.079391,169.018698 246.884471,171.951039 Z M244.884471,198.951039 L244,212.256819 L254.103002,213 L254.987472,199.69422 C255.182432,196.761291 253.078773,194.218382 250.288906,194.013158 C247.504716,193.808351 245.079391,196.018698 244.884471,198.951039 Z M303.884471,201.951039 L303,215.256819 L313.103002,216 L313.987472,202.69422 C314.182432,199.761291 312.078773,197.218382 309.288906,197.013158 C306.504716,196.808351 304.079391,199.018698 303.884471,201.951039 Z M261.884471,171.951039 L261,185.256819 L271.103002,186 L271.987472,172.69422 C272.182432,169.761291 270.078773,167.218382 267.288906,167.013158 C264.504716,166.808351 262.079391,169.018698 261.884471,171.951039 Z M258.884471,199.951039 L258,213.256819 L268.103002,214 L268.987472,200.69422 C269.182432,197.761291 267.078773,195.218382 264.288906,195.013158 C261.504716,194.808351 259.079391,197.018698 258.884471,199.951039 Z M330.164001,205.328705 L329,220.501178 L336.826267,221 L337.990268,205.827527 C338.141508,203.856141 336.512127,202.146564 334.350963,202.008818 C332.194197,201.871352 330.315232,203.357436 330.164001,205.328705 Z M319.164001,203.328705 L318,218.501178 L325.826267,219 L326.990268,203.827527 C327.141508,201.856141 325.512127,200.146564 323.350963,200.008818 C321.194197,199.871352 319.315232,201.357436 319.164001,203.328705 Z" id="tower" fill="url(#linearGradient-10)"></path>
                <path d="M50.8124245,43.2111853 L50.8163198,42.1188119 L50.8605235,42.6304401 L50.9955614,41 L51.0073733,44.3301275 L52.6034457,62.8035947 L57.656508,62.8932074 L57.1709451,67.8148454 L54.403792,68.0250279 L54.4735107,69.4251584 L57.4337784,69.6608669 L57.8792376,75.0408874 L54.3254356,75.6252708 L66.010677,160.351089 L74.0823537,160.351089 L74.6043184,171.560822 L72.1561437,171.531495 L78.3296407,193.89122 L85.9184888,193.692443 L86.4022007,205.570199 L82.7101953,206.228445 L101.811881,267 L80.9474848,266.995655 C80.9474848,266.995655 81.5996322,232.232963 74.5234941,223.706179 C67.447356,215.179395 50.3465347,214.453804 50.3465347,214.453804 L50.3465347,213.987493 C47.211411,214.228794 33.5313053,215.69557 27.2883871,223.205472 C20.212249,231.717695 20.8643964,256.926356 20.8643964,256.926356 L-2.64438832e-14,256.930693 L19.1016859,205.757586 L15.4096805,205.100464 L15.8933924,193.242992 L23.4822405,193.44143 L29.6557375,171.119889 L27.2075628,171.149167 L27.7295275,159.958577 L34.9825046,159.958577 L47.4864456,75.3774499 L43.9326436,74.7940644 L44.3781028,69.4232317 L47.3383705,69.1879257 L47.4080892,67.7901863 L44.6409361,67.5803627 L44.1553732,62.6671298 L49.2084355,62.5776701 L50.8124245,43.2111853 Z M50.3480166,173.44608 L43.0676055,173.44608 L39.8050506,192.564183 L50.9955614,192.564183 L50.9955614,193.012473 L62.0068306,193.012473 L58.7442757,173.861665 L50.3465347,173.861665 L50.3480166,173.44608 Z M42.5148515,160.712871 C55.9405941,160.712871 55.9405941,160.712871 55.9405941,160.712871 L50.83391,94.0019044 C50.83391,94.0019044 44.3973334,146.286519 42.5148515,160.712871 Z" id="Combined-Shape" fill="url(#linearGradient-11)"></path>
                <path d="M308,90 L308,89 L305,89 L305,94 L306,94 L306,114 L305,114 L305,119 L306,119 L334,119 L335,119 L335,114 L334,114 L334,94 L335,94 L335,89 L332,89 L332,90 L308,90 Z M301.181691,267 L301.181691,130.187739 L297,130.187739 L297,84.0648256 L301.402754,84.0648256 L301.402754,69.4983458 L307.135679,69.4983458 L313.303423,51.8104612 L313.303423,34.5461561 L319.882041,7 L326.538376,33.4318929 L326.538376,52.0178548 L332.240209,69.7654707 L338.891965,69.7654707 L338.891965,83.8705357 L343,83.8705357 L343,129.780992 L339.159786,129.780992 L339.159786,266.547076 L301.181691,267 Z M318,24 L318,33 L321,33 L321,24 L318,24 Z M307,74 L307,79 L310,79 L310,74 L307,74 Z M307,130 L307,153 L310,153 L310,130 L307,130 Z M334,158 L307,158 L307,161 L334,161 L334,158 Z M334,192 L307,192 L307,195 L334,195 L334,192 Z M334,226 L307,226 L307,229 L334,229 L334,226 Z M307,165 L307,188 L310,188 L310,165 L307,165 Z M307,199 L307,222 L310,222 L310,199 L307,199 Z M307,233 L307,256 L310,256 L310,233 L307,233 Z M324,74 L324,79 L327,79 L327,74 L324,74 Z M324,130 L324,153 L327,153 L327,130 L324,130 Z M324,165 L324,188 L327,188 L327,165 L324,165 Z M324,199 L324,222 L327,222 L327,199 L324,199 Z M324,233 L324,256 L327,256 L327,233 L324,233 Z M312,74 L312,79 L315,79 L315,74 L312,74 Z M312,130 L312,153 L315,153 L315,130 L312,130 Z M312,165 L312,188 L315,188 L315,165 L312,165 Z M312,199 L312,222 L315,222 L315,199 L312,199 Z M312,233 L312,256 L315,256 L315,233 L312,233 Z M330,74 L330,79 L333,79 L333,74 L330,74 Z M330,130 L330,153 L333,153 L333,130 L330,130 Z M330,165 L330,188 L333,188 L333,165 L330,165 Z M330,199 L330,222 L333,222 L333,199 L330,199 Z M330,233 L330,256 L333,256 L333,233 L330,233 Z M316,46 L325,46 L325,39 L316,39 L316,46 Z" id="big-ben" fill="url(#linearGradient-12)"></path>
                <path d="M104.738396,11.1997928 L103.465301,7.65373351 C103.465301,7.65373351 109.561101,0.786450843 109.561101,0.0451003009 C109.561101,-0.696250242 110.406664,7.94743796 110.406664,7.94743796 L109.020291,10.9783328 L112.555285,11.1147197 L112.539207,13.8613627 L109.411282,15.3751222 L109.314813,18.9103785 C109.314813,18.9103785 112.621607,39.5719483 113.873143,42.7956079 C115.124678,46.0192674 115.550931,47.7460789 117.079814,47.7460789 C118.608697,47.7460789 119.258399,45.1520272 119.258399,44.0082678 C119.258399,42.8645084 119.258399,42.0245812 119.258399,42.0245812 L117.174821,41.6613329 C117.174821,41.6613329 118.528461,41.431813 119.011746,41.0928291 L119.011746,40.3728838 L116.430112,39.1185951 C116.430112,39.1185951 118.763565,38.9885817 119.660535,38.650324 L119.660535,37.9003649 L118.189935,34.5665137 L121.867805,36.7905653 L122.919094,36.5974631 L123.76685,32.4930278 L125.632277,36.4556747 L127.304401,36.7905653 L130.423374,34.7435485 L129.531586,37.7243429 C129.531586,37.7243429 129.518656,38.3498839 129.726716,38.4002007 C129.934776,38.4505175 132.360787,38.650324 132.360787,38.650324 L129.726716,39.4852192 C129.726716,39.4852192 129.725207,40.0212908 129.959849,40.1488919 C130.19449,40.276493 132.682897,41.0928291 132.682897,41.0928291 L129.660211,42.0245812 L129.142788,44.6388883 L129.959849,47.3433006 C129.959849,47.3433006 129.959849,47.3433006 129.531586,49.2740172 C131.777407,50.1390631 137.599148,58.6016654 137.599148,60.0701877 C137.599148,61.5387099 138.392822,66.8469959 139.577487,66.8469959 C140.762152,66.8469959 142.595058,66.8132367 142.595058,66.8132367 L144.929308,63.2536738 L152.608802,67.1980908 L150.924254,69.1682738 L150.691121,74.3820342 L144.113709,78.7632943 L143.953659,84.4868176 L140.082486,87.5805045 L140.597717,116.422957 L138.373821,117.988705 C138.373821,117.988705 137.307549,123.751389 138.442518,123.751389 C139.577487,123.751389 141.107832,123.573816 141.107832,123.573816 L140.672992,132.432212 C140.672992,132.432212 143.464007,135.552231 143.464007,136.586611 C143.464007,137.620991 142.235492,139.916612 141.158989,139.916612 C140.082486,139.916612 140.805271,142.657853 140.805271,142.657853 L145.529314,142.967762 L145.38388,150.263786 L142.700296,153.836177 L143.76876,234.319003 L103.195627,235.372288 L103.479187,142.684861 L106.902365,142.751704 L106.506989,131.464676 L112.048824,126.795788 L112.555285,92.680159 C112.555285,92.680159 110.137721,88.5419645 110.272192,86.5143911 C110.406664,84.4868176 112.490242,80.6011415 112.490242,80.6011415 L112.673678,78.348057 L109.531137,80.1615976 L109.095566,72.6191323 L111.738955,65.9165942 C111.738955,65.9165942 110.842235,64.7093676 110.126758,63.3610279 C109.411282,62.0126881 109.474864,55.3958982 109.474864,55.3958982 C109.474864,55.3958982 106.127692,51.8079777 106.127692,49.2740172 C106.127692,46.7400567 107.300663,44.1635598 108.307738,44.0859138 C109.314813,44.0082678 106.544992,37.0275544 106.52599,35.7791417 C106.506989,34.530729 106.902365,31.0847337 106.902365,28.9167222 C106.902365,26.7487108 104.738396,19.1827829 104.738396,19.1827829 L103.620967,15.6573486 L102.466265,14.8316002 L102,11.0127672 L104.738396,11.1997928 Z" id="statue-of-liberty" fill="url(#linearGradient-13)"></path>
                <path d="M556,109.354747 C560.721591,109.480321 588.191553,111.658391 588.191553,111.658391 L594.948658,110.705987 L595.290125,111.45366 C595.290125,111.45366 595.30618,111.658391 600.983308,111.97591 C601.357811,114.744133 595.30618,115.766699 595.30618,115.766699 C595.30618,115.766699 589.404905,116.044859 587.249276,116.044859 C585.093646,116.044859 586.012768,122.068553 582.180367,124.636713 C574.367986,123.670308 582.180367,124.636713 574.768268,123.799898 C567.30214,123.799898 562.490721,127.87756 562.490721,127.87756 C562.490721,127.87756 563.185562,131.576873 563.185562,135.895358 L563.185562,140.774207 C563.185562,140.774207 564.164235,153.244387 563.908479,163.431666 C563.652723,173.618945 561.85101,193.932217 561.85101,193.932217 L566.449397,197.330501 L573.323824,293.916638 L552,293.996266 L552,297 L547,297 L547,296.466998 L527.676176,297 L534.550603,198.204987 L539.14899,194.773059 L538.834692,140.623258 C538.834692,140.623258 538.834692,138.116555 538.509279,135.93193 C537.280027,131.854591 538.509279,128.06445 538.509279,128.06445 C538.509279,128.06445 533.69786,123.94642 526.231732,123.94642 C518.819633,124.791519 526.632014,123.815546 518.819633,124.791519 C514.987232,122.197934 515.906354,116.114605 513.750724,116.114605 C511.595095,116.114605 505.69382,115.83369 505.69382,115.83369 C505.69382,115.83369 499.642189,114.801001 500.016692,112.005372 C505.69382,111.684709 505.709875,111.477951 505.709875,111.477951 L506.051342,110.722877 L512.808447,111.684709 C512.808447,111.684709 541.933371,109.352557 545.359006,109.352557 C545.975701,109.352557 546.520764,109.341131 547,109.322393 L547,109 L547,101.503992 C547,99.0165059 549.019776,97 551.5,97 C553.985281,97 556,99.0073299 556,101.503992 L556,109.354747 Z" id="christ-statue" fill="url(#linearGradient-14)"></path>
            </g>
            <path d="M317.509131,328.450546 C322.081923,327.508389 365.331695,315.34632 379.454202,320.074097 C386.142074,322.312989 419,319.026137 419,314.698743 C419,310.895329 381.411396,307.02296 359.053408,307.02296 C340.490929,307.02296 332.913627,308.166574 320.281321,307.02296 C302.549854,305.417715 303.804125,305.664588 295.376275,308.026928 C288.359207,309.993824 260.855152,320.715618 256.419745,323.373631 C251.984338,326.031645 283.401249,335.47798 317.509131,328.450546 Z" id="Oval-3" fill="url(#linearGradient-15)" opacity="0.300000012"></path>
            <path d="M206.509131,328.450546 C211.081923,327.508389 254.331695,315.34632 268.454202,320.074097 C275.142074,322.312989 308,319.026137 308,314.698743 C308,310.895329 270.411396,307.02296 248.053408,307.02296 C229.490929,307.02296 221.913627,308.166574 209.281321,307.02296 C191.549854,305.417715 192.804125,305.664588 184.376275,308.026928 C177.359207,309.993824 149.855152,320.715618 145.419745,323.373631 C140.984338,326.031645 172.401249,335.47798 206.509131,328.450546 Z" id="Oval-3-Copy" fill="url(#linearGradient-15)" opacity="0.300000012"></path>
            <g id="tree-copy-2" opacity="0.200000003" transform="translate(339.000000, 195.000000)">
                <g id="Path-2">
                    <mask id="mask-17" fill="white">
                        <use xlink:href="#path-16"></use>
                    </mask>
                    <use id="Mask" fill="#80EFC5" transform="translate(8.043030, 15.804406) rotate(3.000000) translate(-8.043030, -15.804406) " xlink:href="#path-16"></use>
                </g>
                <path d="M8.17901942,40 C8.17901942,40 9.97752116,19.3100939 6.66666667,6" id="Path-19" stroke="#86B6FF" stroke-linecap="round"></path>
                <path d="M8,14.6666667 C8,14.6666667 8.24865042,12.6736073 9.33333333,11.3333333" id="Path-20" stroke="#86B6FF" stroke-linecap="round"></path>
                <path d="M6.66666667,18 C6.66666667,18 6.91531708,16.0069407 8,14.6666667" id="Path-20-Copy-2" stroke="#86B6FF" stroke-linecap="round" transform="translate(7.333333, 16.333333) scale(-1, 1) rotate(8.000000) translate(-7.333333, -16.333333) "></path>
                <path d="M8,19.3333333 C8,19.3333333 8.49730083,17.340274 10.6666667,16" id="Path-20-Copy" stroke="#86B6FF" stroke-linecap="round"></path>
            </g>
            <g id="tree" transform="translate(208.000000, 122.000000)">
                <g id="Path-2">
                    <mask id="mask-19" fill="white">
                        <use xlink:href="#path-18"></use>
                    </mask>
                    <use id="Mask" fill="#80EFC5" opacity="0.300000012" transform="translate(32.172120, 68.229863) rotate(3.000000) translate(-32.172120, -68.229863) " xlink:href="#path-18"></use>
                    <mask id="mask-21" fill="white">
                        <use xlink:href="#path-20"></use>
                    </mask>
                    <use id="Mask-Copy-2" fill="#80EFC5" transform="translate(31.831583, 79.755592) rotate(3.000000) translate(-31.831583, -79.755592) " xlink:href="#path-20"></use>
                </g>
                <path d="M31.4985004,174.996182 C31.4985004,174.996182 39.1027743,92.8474074 25.1040977,40" id="Path-19" stroke="#86B6FF" stroke-linecap="round"></path>
                <path d="M30.1794872,67.3373494 C30.1794872,67.3373494 31.4360654,58.3613786 36.9176124,52.3253012" id="Path-20" stroke="#86B6FF" stroke-linecap="round"></path>
                <path d="M23.6153846,83.3493976 C23.6153846,83.3493976 24.8719629,74.3734268 30.3535099,68.3373494" id="Path-20-Copy-2" stroke="#86B6FF" stroke-linecap="round" transform="translate(26.984447, 75.843373) scale(-1, 1) rotate(8.000000) translate(-26.984447, -75.843373) "></path>
                <path d="M32.8205128,96.9277108 C32.8205128,96.9277108 34.9627318,86.6694585 44.3076923,79.7710843" id="Path-20-Copy" stroke="#86B6FF" stroke-linecap="round"></path>
            </g>
            <g id="tree-copy-4" transform="translate(153.000000, 122.000000)">
                <g id="Path-2">
                    <mask id="mask-23" fill="white">
                        <use xlink:href="#path-22"></use>
                    </mask>
                    <use id="Mask" fill="#80EFC5" opacity="0.5" transform="translate(32.172120, 68.229863) rotate(3.000000) translate(-32.172120, -68.229863) " xlink:href="#path-22"></use>
                    <mask id="mask-25" fill="white">
                        <use xlink:href="#path-24"></use>
                    </mask>
                    <use id="Mask-Copy" fill="#80EFC5" transform="translate(32.631881, 79.890791) rotate(3.000000) translate(-32.631881, -79.890791) " xlink:href="#path-24"></use>
                </g>
                <path d="M31.4985004,174.996182 C31.4985004,174.996182 39.1027743,84.5423382 25.1040977,26.3521684" id="Path-19" stroke="#86B6FF" stroke-linecap="round"></path>
                <path d="M31.1794872,59.3373494 C31.1794872,59.3373494 32.4360654,50.3613786 37.9176124,44.3253012" id="Path-20" stroke="#86B6FF" stroke-linecap="round"></path>
                <path d="M24.6153846,81.3493976 C24.6153846,81.3493976 25.8719629,72.3734268 31.3535099,66.3373494" id="Path-20-Copy-2" stroke="#86B6FF" stroke-linecap="round" transform="translate(27.984447, 73.843373) scale(-1, 1) rotate(8.000000) translate(-27.984447, -73.843373) "></path>
                <path d="M33.8205128,108.927711 C33.8205128,108.927711 35.9627318,98.6694585 45.3076923,91.7710843" id="Path-20-Copy" stroke="#86B6FF" stroke-linecap="round"></path>
            </g>
            <g id="man1" transform="translate(231.000000, 139.000000)">
                <path d="M141.508,16.469 C139.412,21.509 133.629,23.896 128.589,21.802 C123.549,19.706 121.162,13.923 123.257,8.883 C125.78,2.81 130.596,1.232 136.175,3.551 C141.215,5.645 143.603,11.429 141.508,16.469" id="Fill-167" fill="#FFEAD6"></path>
                <path d="M94.094,88.443 C95.088,89.438 96.701,89.438 97.695,88.443 C98.69,87.449 98.69,85.836 97.695,84.841 C96.701,83.846 95.088,83.846 94.094,84.841 C93.099,85.836 93.099,87.449 94.094,88.443" id="Fill-182" fill="#E48E65"></path>
                <path d="M103.346,84.243 L100.21,117.335 C100.21,117.335 88.159,129.109 83.764,138.604 C79.368,148.1 75.57,153.417 75.57,153.417 L82.681,160.245 L109.244,127.318 C109.854,126.56 110.351,125.717 110.719,124.816 L121.527,98.416 L103.346,84.243" id="Fill-162" fill="#585858"></path>
                <path d="M160.938,41.932 C161.893,44.816 160.329,47.93 157.443,48.885 C154.559,49.841 151.445,48.277 150.49,45.392 C149.534,42.507 151.099,39.394 153.983,38.438 C156.868,37.482 159.981,39.046 160.938,41.932" id="Fill-163" fill="#FFEAD6"></path>
                <path d="M168.485,32.646 L168.485,32.646 C168.838,33.179 168.69,33.904 168.158,34.257 L152.965,44.338 C152.433,44.691 151.708,44.543 151.355,44.011 C151.002,43.478 151.149,42.753 151.683,42.4 L166.875,32.319 C167.408,31.966 168.133,32.113 168.485,32.646" id="Fill-164" fill="#585858"></path>
                <path d="M127.013,36.91 L134.925,56.708 L151.834,45.274 L155.818,49.139 L135.174,68.401 C133.81,69.433 131.862,69.129 130.877,67.731 L121.126,53.899 L127.013,36.91" id="Fill-165" fill="#FFEAD6"></path>
                <polygon id="Path-5" fill="#3A7FE8" points="125.550027 35.8961894 135.4895 56 149.27 47 152.845617 55.8625 133 71 121.527 56.3627524"></polygon>
                <circle id="Oval" fill="#FFFFFF" cx="149" cy="52" r="1"></circle>
                <circle id="Oval-Copy-7" fill="#FFFFFF" cx="146.87037" cy="53.5368068" r="1"></circle>
                <path d="M121.135,30.163 L120.472,29.788 C118.276,28.544 115.219,29.874 116.463,27.679 L127.013,8.973 L134.925,13.456 L126.265,28.743 C125.24,30.552 122.943,31.187 121.135,30.163" id="Fill-166" fill="#FFEAD6"></path>
                <path d="M130.185,26.922 L130.185,26.922 C127.792,25.928 126.658,23.182 127.652,20.789 L131.285,12.05 L141.567,16.325 L138.607,23.446 C137.241,26.732 133.471,28.288 130.185,26.922" id="Fill-168" fill="#FFEAD6"></path>
                <path d="M140.395,18.397 L141.166,22.162 C141.25,22.758 140.639,23.193 140.058,22.952 L137.565,22.428 L140.395,18.397" id="Fill-169" fill="#FFEAD6"></path>
                <path d="M130.585,13.735 L130.808,15.873 C130.851,16.286 131.126,16.638 131.516,16.779 L132.11,16.996 C132.485,17.132 132.901,16.949 133.054,16.581 L135.969,11.791 L142.883,13.531 C142.883,13.531 145.396,9.573 142.215,5.893 C139.035,2.213 131.096,-1.821 126.017,1.702 C120.938,5.225 120.551,10.074 121.209,19.263 C121.209,19.263 124.173,19.562 127.729,15.807 L130.585,13.735" id="Fill-170" fill="#646464"></path>
                <polyline id="Fill-171" fill="#B6B9BD" points="130.431 14.059 140.241 18.721 140.548 18.074 130.739 13.412"></polyline>
                <polyline id="Fill-172" fill="#B6B9BD" points="141.253 16.001 139.31 20.47 139.967 20.756 141.911 16.287"></polyline>
                <path d="M131.018,12.122 C132.291,13.313 132.358,15.311 131.167,16.585 C129.977,17.858 127.979,17.925 126.704,16.734 C125.431,15.543 125.364,13.545 126.555,12.272 C127.746,10.998 129.744,10.931 131.018,12.122" id="Fill-173" fill="#FFEAD6"></path>
                <path d="M128.861,81.199 L128.861,88.659 L144.532,118.593 C145.018,119.519 145.325,120.527 145.441,121.565 L150.204,164.242 L140.898,167.091 C140.898,167.091 130.453,136.326 132.353,127.4 L106.715,94.356 C106.715,94.356 101.115,87.372 103.346,78.9 L128.861,81.199" id="Fill-175" fill="#646464"></path>
                <path d="M150.204,164.242 L160.045,165.188 C162.57,165.43 164.837,166.839 166.172,168.996 C166.424,169.402 166.194,169.935 165.727,170.031 L142.852,174.757 C142.468,174.837 142.096,174.58 142.033,174.193 L140.898,167.091 L150.204,164.242" id="Fill-176" fill="#585858"></path>
                <path d="M82.809,159.901 L87.099,168.809 C88.199,171.094 88.168,173.763 87.016,176.022 C86.798,176.448 86.224,176.527 85.899,176.178 L70.376,159.326 C70.109,159.039 70.137,158.587 70.436,158.333 L75.552,153.417 L82.809,159.901" id="Fill-177" fill="#585858"></path>
                <path d="M135.969,11.791 L142.883,13.531 C142.883,13.531 148.47,14.281 149.27,7.248 L134.925,1.131 L135.969,11.791" id="Fill-178" fill="#646464"></path>
                <path d="M61.39,114.544 L58.668,117.209 L55.233,113.774 L58.112,111.105 C59.069,110.218 60.563,110.269 61.457,111.219 C62.344,112.161 62.313,113.639 61.39,114.544" id="Fill-179" fill="#23D291"></path>
                <path d="M33.804,120.839 L36.863,124.079 L4.83,155.364 L1.473,151.943 C0.245,150.692 0.274,148.681 1.537,147.466 L29.33,120.732 C30.592,119.518 32.602,119.566 33.804,120.839" id="Fill-180" fill="#23D291"></path>
                <polyline id="Fill-181" fill="#10C07F" points="62.769 120.497 61.427 119.132 94.059 87.053 95.4 88.418 62.769 120.497"></polyline>
                <path d="M66.729,123.315 L52.241,110.276 C50.196,108.436 47.072,108.504 45.108,110.432 L5.723,149.11 C3.68,151.117 3.64,154.396 5.634,156.452 L20.156,171.421 L66.729,123.315" id="Fill-183" fill="#10C07F"></path>
                <path d="M13.106,168.422 C13.106,172.256 16.215,175.365 20.049,175.365 C23.884,175.365 26.992,172.256 26.992,168.422 C26.992,164.588 23.884,161.479 20.049,161.479 C16.215,161.479 13.106,164.588 13.106,168.422" id="Fill-184" fill="#585858"></path>
                <path d="M17.138,168.422 C17.138,170.03 18.441,171.333 20.049,171.333 C21.657,171.333 22.961,170.03 22.961,168.422 C22.961,166.814 21.657,165.511 20.049,165.511 C18.441,165.511 17.138,166.814 17.138,168.422" id="Fill-185" fill="#FFEAD6"></path>
                <path d="M100.613,88.742 C99.454,91.348 96.401,92.521 93.795,91.361 C91.188,90.202 90.016,87.149 91.176,84.543 C92.335,81.937 95.388,80.764 97.994,81.923 C100.601,83.083 101.773,86.136 100.613,88.742" id="Fill-186" fill="#FFEAD6"></path>
                <path d="M108.441,50.411 L99.338,64.702 L98.639,83.686 L93.271,83.558 L90.811,63.781 C90.649,62.682 90.841,61.56 91.357,60.576 L99.306,45.183 L108.441,50.411" id="Fill-187" fill="#FFEAD6"></path>
                <polygon id="Path-6" fill="#BDD7FF" points="149.27 47 150.459562 46.2900847 154.47255 52.2960474 152.172989 54"></polygon>
                <path d="M130.585,43.43 C131.5,58.3083378 128.841676,82.5055505 129.563531,89.6573968 C115.580629,89.122449 106.392786,88.3588918 102,87.3667251 C102.547265,76.7889084 105.181265,58.3026667 109.902,31.908 C109.902,31.908 115.302,21.349 122.497,26.815 C122.497,26.815 129.67,28.5516622 130.585,43.43 Z" id="Fill-174" fill="#6AA5FF"></path>
                <path d="M99.0188419,42.511311 C98.6640607,43.0474962 95.5276622,49.7724372 89.6096464,62.6861341 C90.8945581,75.7842031 91.3580094,82.6601946 91,83.3141086 L98.95,82.3268063 L100.5,63.316 C106.71011,53.7029961 110.064943,48.5976628 110.5645,48 C114.016523,43.8700502 119.576144,41.2544834 120.5,35.3253012 C121.25,30.5173012 120.578,23.987 116.175,25.657 C112.630702,27.0000935 105.460127,32.7765172 99.0188419,42.511311 Z" id="Fill-188" fill="#3A7FE8"></path>
            </g>
            <g id="woman" transform="translate(185.000000, 138.000000)">
                <path d="M95.554,79.146 C94.707,82.011 91.698,83.647 88.833,82.801 C85.968,81.954 84.331,78.945 85.178,76.08 C86.024,73.215 89.033,71.578 91.898,72.425 C94.764,73.271 96.4,76.28 95.554,79.146" id="Fill-128" fill="#FFEAD6"></path>
                <polyline id="Fill-129" fill="#FFEAD6" points="95.38 78.92 103.024 69.134 98.465 65.576 91.843 73.662 95.38 78.92"></polyline>
                <path d="M99.847,75.729 L93.071,69.944 L106.483,51.273 C106.744,50.91 107.062,50.59 107.424,50.328 L126.227,33.243 L131.121,39.991 L112.864,56.68 L99.847,75.729" id="Fill-130" fill="#FFA85A"></path>
                <polyline id="Fill-131" fill="#FFEAD6" points="165.036 170.588 159.461 161.253 164.463 157.387 170.366 167.226 165.036 170.588"></polyline>
                <polyline id="Fill-132" fill="#FFEAD6" points="81.806 168.815 85.822 157.285 92.817 159.487 87.312 170.988 81.806 168.815"></polyline>
                <path d="M133.26,73.854 C133.26,73.854 144.378,93.095 149.42,119.867 L167.03,158.438 L159.318,165.106 C159.318,165.106 138.149,139.963 137.459,119.867 L122.87,93.133 L133.26,73.854" id="Fill-133" fill="#585858"></path>
                <path d="M134.934,4.581 C134.934,4.581 144.551,2.467 141.71,10.557 C138.706,19.111 132.064,12.847 132.064,12.847 L134.934,4.581" id="Fill-135" fill="#503628"></path>
                <path d="M128.336,32.482 L128.336,32.482 C125.837,32.482 123.057,32.543 123.057,32.543 L123.057,12.847 L132.064,12.847 L132.064,32.841 C132.064,32.841 130.396,32.482 128.336,32.482" id="Fill-136" fill="#FFEAD6"></path>
                <path d="M132.393,25.791 L132.393,25.791 C129.825,25.791 127.745,23.711 127.745,21.144 L127.745,14.445 L138.774,12.847 L138.774,19.41 C138.774,22.934 135.917,25.791 132.393,25.791" id="Fill-138" fill="#FFEAD6"></path>
                <path d="M138.774,12.847 C138.774,18.252 134.392,22.635 128.985,22.635 C123.58,22.635 119.197,18.252 119.197,12.847 C119.197,7.441 123.58,3.059 128.985,3.059 C134.392,3.059 138.774,7.441 138.774,12.847" id="Fill-137" fill="#FFEAD6"></path>
                <path d="M138.489,15.033 L140.627,18.183 C140.93,18.696 140.536,19.327 139.912,19.327 L137.435,19.795 L138.489,15.033" id="Fill-139" fill="#FFEAD6"></path>
                <path d="M129.511,16.106 C129.511,16.106 140.022,9.477 136.846,4.581 C130.992,-4.442 121.724,4.581 121.724,4.581 L129.511,16.106" id="Fill-140" fill="#60412F"></path>
                <path d="M120.966,6.41292767 C120.28274,3.76351223 116.973169,2.70107025 114.531188,5.33890989 C112.089207,7.97674953 113,12.3929025 116.49831,11.3471878 C116.539072,11.5107427 117.596365,13.3973117 119.055399,12.3929025 C118.836171,14 118.184813,16.9123569 119.197,18.8192315 C119.797122,19.9498103 121.083789,21.3658833 123.057,23.0674503 C124.704461,22.4727132 124,21 127.561,17.415 C127.561,17.415 127.258,12.327 130.992,11.636 L125.842826,1.75476813 C122.909851,2.34558938 121.284243,3.89830922 120.966,6.41292767 Z" id="Fill-141" fill="#60412F"></path>
                <polyline id="Fill-144" fill="#FFEAD6" points="156.696 77.72 145.979 71.447 143.061 76.441 151.956 81.926 156.696 77.72"></polyline>
                <path d="M137.149,64.316 L133.26,78.896 C133.26,78.896 127.039,107.775 110.938,124.523 L93.622,164.242 L82.986,160.398 C82.986,160.398 87.312,130.479 101.146,116.729 L114.521,82.451 C114.521,82.451 110.067,70.143 121.057,64.316 L137.149,64.316" id="Fill-149" fill="#8A8A8A"></path>
                <path d="M81.022,167.356 L78.766,172.758 C78.501,173.391 78.8,174.118 79.434,174.382 L90.854,179.14 L101.442,179.14 C101.442,176.751 99.805,174.674 97.482,174.114 L96.646,173.913 C95.676,173.68 94.798,173.164 94.121,172.431 L90.219,168.205 C90.013,167.982 89.692,167.902 89.409,168.009 C88.124,168.498 84.417,169.608 82.255,167.16 C81.894,166.751 81.232,166.853 81.022,167.356" id="Fill-150" fill="#585858"></path>
                <path d="M162.866,170.422 L165.523,175.638 C165.835,176.25 166.583,176.492 167.193,176.18 L185.979,163.436 L185.064,162.481 C183.243,160.935 180.601,160.838 178.671,162.247 L177.976,162.755 C177.17,163.343 176.209,163.679 175.212,163.721 L169.464,163.96 C169.162,163.973 168.894,164.165 168.792,164.451 C168.333,165.747 166.78,169.291 163.515,169.355 C162.969,169.366 162.618,169.936 162.866,170.422" id="Fill-151" fill="#585858"></path>
                <circle id="Oval" fill="#FFFFFF" cx="148.5" cy="76.5" r="1"></circle>
                <circle id="Oval-Copy-8" fill="#FFFFFF" cx="146.5" cy="75.5" r="1"></circle>
                <path d="M57.487,112.76 L55.048,115.686 L51.285,112.614 L53.881,109.668 C54.744,108.689 56.234,108.59 57.221,109.445 C58.197,110.293 58.316,111.767 57.487,112.76" id="Fill-153" fill="#428DFF"></path>
                <path d="M30.676,121.799 L34.045,124.714 L5.321,159.063 L1.637,155.998 C0.29,154.877 0.117,152.873 1.251,151.537 L26.213,122.143 C27.347,120.808 29.352,120.654 30.676,121.799" id="Fill-154" fill="#428DFF"></path>
                <polyline id="Fill-155" fill="#428DFF" points="58.475 118.543 57.002 117.322 89.419 78.207 90.892 79.428 58.475 118.543"></polyline>
                <path d="M89.594,79.586 C90.684,80.476 92.289,80.313 93.179,79.224 C94.068,78.134 93.906,76.529 92.816,75.64 C91.727,74.75 90.121,74.912 89.231,76.002 C88.342,77.092 88.504,78.696 89.594,79.586" id="Fill-156" fill="#428DFF"></path>
                <path d="M63.683,120.95 L47.956,109.435 C45.736,107.809 42.635,108.191 40.875,110.307 L5.58,152.751 C3.75,154.954 4.04,158.221 6.23,160.065 L22.186,173.498 L63.683,120.95" id="Fill-157" fill="#86B6FF"></path>
                <path d="M14.87,171.223 C15.256,175.038 18.661,177.817 22.476,177.432 C26.291,177.046 29.07,173.641 28.685,169.826 C28.299,166.011 24.894,163.231 21.079,163.617 C17.264,164.002 14.484,167.408 14.87,171.223" id="Fill-158" fill="#585858"></path>
                <path d="M18.969,170.808 C19.125,172.359 20.51,173.49 22.061,173.333 C23.612,173.176 24.743,171.792 24.586,170.24 C24.429,168.689 23.045,167.559 21.493,167.715 C19.942,167.873 18.811,169.257 18.969,170.808" id="Fill-159" fill="#FFEAD6"></path>
                <path d="M119.197,42.588 C120.224,50.623 114.469414,65.576 113.157756,76.5 L135.609646,77 L138.774,51.17 C138.774,51.17 139.937,49.169 140.54,46.553 C141.385,42.893 139.953,39.078 137.006,36.748 L132.064,32.841 C132.064,32.841 128.993,30.35 123.057,32.543 C123.057,32.543 118.171,34.555 119.197,42.588 Z" id="Fill-148" fill="#FFA85A"></path>
                <rect id="Rectangle-Copy-51" fill="#585858" transform="translate(145.000000, 73.000000) rotate(32.000000) translate(-145.000000, -73.000000) " x="131" y="54" width="28" height="38" rx="2"></rect>
                <rect id="Rectangle" fill="#DBDFE4" transform="translate(144.275219, 73.132807) rotate(32.000000) translate(-144.275219, -73.132807) " x="130.275219" y="54.1328074" width="28" height="38" rx="2"></rect>
                <path d="M157.393,76.318 C160.345,76.776 162.367,79.54 161.91,82.492 C161.453,85.445 158.689,87.467 155.736,87.01 C152.784,86.553 150.762,83.789 151.219,80.836 C151.676,77.884 154.44,75.861 157.393,76.318" id="Fill-143" fill="#FFEAD6"></path>
                <path d="M148.339,81.35 L128.678,67.15 C127.75,66.479 127.138,65.457 126.986,64.322 L124.083,40.733 C123.777,38.452 125.381,36.354 127.662,36.05 C129.944,35.745 132.041,37.348 132.347,39.629 L135.013,61.44 L153.221,74.591 L148.339,81.35" id="Fill-152" fill="#FF973A"></path>
                <polygon id="Path-12" fill="#FFFFFF" points="94.0996217 70.7593947 92.7743337 72.4652621 97.1123964 76.957788 98.7955619 74.8499293"></polygon>
                <polygon id="Path-13" fill="#DBDFE4" points="121.845053 29.1776667 122.074878 33.4171013 135.063077 35.8482584 132.952066 30.4107732"></polygon>
            </g>
            <g id="tree-copy-6" opacity="0.300000012" transform="translate(37.000000, 210.000000)">
                <g id="Path-2">
                    <mask id="mask-27" fill="white">
                        <use xlink:href="#path-26"></use>
                    </mask>
                    <use id="Mask" fill="#80EFC5" transform="translate(7.540341, 17.413300) rotate(3.000000) translate(-7.540341, -17.413300) " xlink:href="#path-26"></use>
                </g>
                <path d="M7.68308804,44 C7.68308804,44 9.52246482,21.3440847 6.13636364,6.76923077" id="Path-19" stroke="#86B6FF" stroke-linecap="round"></path>
                <path d="M7.5,16.2461538 C7.5,16.2461538 7.75430156,14.2224321 8.86363636,12.8615385" id="Path-20" stroke="#86B6FF" stroke-linecap="round"></path>
                <path d="M6.13636364,19.6307692 C6.13636364,19.6307692 6.3906652,17.6070474 7.5,16.2461538" id="Path-20-Copy-2" stroke="#86B6FF" stroke-linecap="round" transform="translate(6.818182, 17.938462) scale(-1, 1) rotate(8.000000) translate(-6.818182, -17.938462) "></path>
                <path d="M7.5,21.6615385 C7.5,21.6615385 8.00860313,19.2330723 10.2272727,17.6" id="Path-20-Copy" stroke="#86B6FF" stroke-linecap="round"></path>
            </g>
            <g id="tree-copy-7" opacity="0.300000012" transform="translate(52.000000, 210.000000)">
                <g id="Path-2">
                    <mask id="mask-29" fill="white">
                        <use xlink:href="#path-28"></use>
                    </mask>
                    <use id="Mask" fill="#80EFC5" transform="translate(7.540341, 17.413300) rotate(3.000000) translate(-7.540341, -17.413300) " xlink:href="#path-28"></use>
                </g>
                <path d="M7.68308804,44 C7.68308804,44 9.52246482,21.3440847 6.13636364,6.76923077" id="Path-19" stroke="#86B6FF" stroke-linecap="round"></path>
                <path d="M7.5,16.2461538 C7.5,16.2461538 7.75430156,14.2224321 8.86363636,12.8615385" id="Path-20" stroke="#86B6FF" stroke-linecap="round"></path>
                <path d="M6.13636364,19.6307692 C6.13636364,19.6307692 6.3906652,17.6070474 7.5,16.2461538" id="Path-20-Copy-2" stroke="#86B6FF" stroke-linecap="round" transform="translate(6.818182, 17.938462) scale(-1, 1) rotate(8.000000) translate(-6.818182, -17.938462) "></path>
                <path d="M7.5,21.6615385 C7.5,21.6615385 8.00860313,19.2330723 10.2272727,17.6" id="Path-20-Copy" stroke="#86B6FF" stroke-linecap="round"></path>
            </g>
            <g id="tree-copy" opacity="0.400000006" transform="translate(583.000000, 232.000000)">
                <g id="Path-2">
                    <mask id="mask-31" fill="white">
                        <use xlink:href="#path-30"></use>
                    </mask>
                    <use id="Mask" fill="#80EFC5" transform="translate(10.053787, 16.944551) rotate(3.000000) translate(-10.053787, -16.944551) " xlink:href="#path-30"></use>
                </g>
                <path d="M9.67221069,43 C9.67221069,43 12.1529027,20.9218925 7.5862069,6.71875" id="Path-19" stroke="#86B6FF" stroke-linecap="round"></path>
                <path d="M9.65517241,15.453125 C9.65517241,15.453125 10.0410093,13.4444949 11.7241379,12.09375" id="Path-20" stroke="#86B6FF" stroke-linecap="round"></path>
                <path d="M7.5862069,18.8125 C7.5862069,18.8125 7.97204375,16.8038699 9.65517241,15.453125" id="Path-20-Copy-2" stroke="#86B6FF" stroke-linecap="round" transform="translate(8.620690, 17.132813) scale(-1, 1) rotate(8.000000) translate(-8.620690, -17.132813) "></path>
                <path d="M10.3448276,21.5 C10.3448276,21.5 10.987889,19.0896439 13.7931034,17.46875" id="Path-20-Copy" stroke="#86B6FF" stroke-linecap="round"></path>
            </g>
            <g id="tree-copy-3" opacity="0.200000003" transform="translate(603.000000, 234.000000)">
                <g id="Path-2">
                    <mask id="mask-33" fill="white">
                        <use xlink:href="#path-32"></use>
                    </mask>
                    <use id="Mask" fill="#80EFC5" transform="translate(10.053787, 19.298327) rotate(3.000000) translate(-10.053787, -19.298327) " xlink:href="#path-32"></use>
                </g>
                <path d="M10.0164703,49 C10.0164703,49 12.4144727,23.6752882 8,7.38356164" id="Path-19" stroke="#86B6FF" stroke-linecap="round"></path>
                <path d="M10,18.1232877 C10,18.1232877 10.3729756,15.7152352 12,14.0958904" id="Path-20" stroke="#86B6FF" stroke-linecap="round"></path>
                <path d="M8,22.1506849 C8,22.1506849 8.37297563,19.7426324 10,18.1232877" id="Path-20-Copy-2" stroke="#86B6FF" stroke-linecap="round" transform="translate(9.000000, 20.136986) scale(-1, 1) rotate(8.000000) translate(-9.000000, -20.136986) "></path>
                <path d="M10,24.1643836 C10,24.1643836 10.621626,21.354989 13.3333333,19.4657534" id="Path-20-Copy" stroke="#86B6FF" stroke-linecap="round"></path>
            </g>
            <g id="clouds" transform="translate(4.000000, 4.000000)">
                <path d="M92.8476907,122.854215 C90.6217204,125.640144 87.1783199,127.427495 83.3135851,127.427495 C81.2162001,127.427495 79.242907,126.901082 77.5209509,125.97433 C73.1432731,131.145613 66.5732055,134.433412 59.2281013,134.433412 C51.5036831,134.433412 44.6364169,130.79727 40.2747746,125.158292 C37.1782919,126.61342 33.7152771,127.427495 30.0603593,127.427495 C16.880351,127.427495 6.19584321,116.841281 6.19584321,103.782524 C6.19584321,90.7237679 16.880351,80.1375541 30.0603593,80.1375541 C31.4181701,80.1375541 32.7494955,80.2499079 34.0453819,80.4657441 C34.0403242,80.2839801 34.0377787,80.1015942 34.0377787,79.9186191 C34.0377787,69.1572364 42.8426046,60.433412 53.7039077,60.433412 C60.6589253,60.433412 66.7706926,64.0105815 70.2672803,69.4092921 C72.8719238,68.147535 75.799604,67.4393292 78.8942303,67.4393292 C88.0019981,67.4393292 95.6637137,73.5736564 97.9002526,81.8997928 C100.692999,80.763889 103.751243,80.1375541 106.957134,80.1375541 C115.96239,80.1375541 123.802667,85.0795396 127.865967,92.3755443 C128.87857,92.1045879 129.943556,91.9600393 131.042617,91.9600393 C137.754659,91.9600393 143.195843,97.3511667 143.195843,104.001459 C143.195843,110.651752 137.754659,116.04288 131.042617,116.04288 C129.865406,116.04288 128.727287,115.877043 127.650761,115.567663 C123.529865,122.655751 115.805924,127.427495 106.957134,127.427495 C101.678289,127.427495 96.7997618,125.729302 92.8476907,122.854215 Z" id="cloud" fill="url(#linearGradient-34)" transform="translate(74.695843, 97.433412) rotate(12.000000) translate(-74.695843, -97.433412) "></path>
                <path d="M455.804648,33.7409748 C454.602299,35.2468823 452.74236,36.2130178 450.654839,36.2130178 C449.521945,36.2130178 448.456078,35.9284701 447.525971,35.4275232 C445.161386,38.2228115 441.61259,40 437.645161,40 C433.472848,40 429.763522,38.0345178 427.407598,34.9864217 C425.735045,35.7729771 423.864512,36.2130178 421.890323,36.2130178 C414.771194,36.2130178 409,30.49074 409,23.4319527 C409,16.3731653 414.771194,10.6508876 421.890323,10.6508876 C422.623739,10.6508876 423.342849,10.7116194 424.042817,10.8282876 C424.040085,10.7300368 424.03871,10.6314498 424.03871,10.5325444 C424.03871,4.71558074 428.794601,0 434.66129,0 C438.418015,0 441.719262,1.9336051 443.607929,4.85182708 C445.014817,4.1697962 446.596192,3.78698225 448.267742,3.78698225 C453.187266,3.78698225 457.325711,7.1028348 458.533769,11.6034491 C460.04226,10.989447 461.694158,10.6508876 463.425806,10.6508876 C468.28996,10.6508876 472.524853,13.3222311 474.719629,17.2660175 C475.266582,17.1195545 475.84183,17.0414201 476.435484,17.0414201 C480.060966,17.0414201 483,19.955543 483,23.5502959 C483,27.1450487 480.060966,30.0591716 476.435484,30.0591716 C475.799618,30.0591716 475.184868,29.9695304 474.603386,29.802298 C472.377501,33.633697 468.205445,36.2130178 463.425806,36.2130178 C460.57446,36.2130178 457.939343,35.2950757 455.804648,33.7409748 Z" id="cloud-copy-2" fill="url(#linearGradient-35)"></path>
                <path d="M481.804648,40.7409748 C480.602299,42.2468823 478.74236,43.2130178 476.654839,43.2130178 C475.521945,43.2130178 474.456078,42.9284701 473.525971,42.4275232 C471.161386,45.2228115 467.61259,47 463.645161,47 C459.472848,47 455.763522,45.0345178 453.407598,41.9864217 C451.735045,42.7729771 449.864512,43.2130178 447.890323,43.2130178 C440.771194,43.2130178 435,37.49074 435,30.4319527 C435,23.3731653 440.771194,17.6508876 447.890323,17.6508876 C448.623739,17.6508876 449.342849,17.7116194 450.042817,17.8282876 C450.040085,17.7300368 450.03871,17.6314498 450.03871,17.5325444 C450.03871,11.7155807 454.794601,7 460.66129,7 C464.418015,7 467.719262,8.9336051 469.607929,11.8518271 C471.014817,11.1697962 472.596192,10.7869822 474.267742,10.7869822 C479.187266,10.7869822 483.325711,14.1028348 484.533769,18.6034491 C486.04226,17.989447 487.694158,17.6508876 489.425806,17.6508876 C494.28996,17.6508876 498.524853,20.3222311 500.719629,24.2660175 C501.266582,24.1195545 501.84183,24.0414201 502.435484,24.0414201 C506.060966,24.0414201 509,26.955543 509,30.5502959 C509,34.1450487 506.060966,37.0591716 502.435484,37.0591716 C501.799618,37.0591716 501.184868,36.9695304 500.603386,36.802298 C498.377501,40.633697 494.205445,43.2130178 489.425806,43.2130178 C486.57446,43.2130178 483.939343,42.2950757 481.804648,40.7409748 Z" id="cloud-copy-3" fill="url(#linearGradient-35)"></path>
            </g>
            <g id="baloons" transform="translate(45.000000, 32.000000)">
                <g id="balloon" transform="translate(76.501218, 58.534878) rotate(-4.000000) translate(-76.501218, -58.534878) translate(62.001218, 35.034878)">
                    <path d="M9.01167996,39.4798063 L5.40700797,29.7617002" id="Line" stroke="#73ABFF" stroke-width="2" stroke-linecap="square"></path>
                    <path d="M23.4303679,39.4798063 L19.8256959,29.7617002" id="Line-Copy" stroke="#73ABFF" stroke-width="2" stroke-linecap="square" transform="translate(21.628032, 34.620753) scale(-1, 1) translate(-21.628032, -34.620753) "></path>
                    <path d="M14.4186879,39.4798063 L14.4186879,29.7617002" id="Line" stroke="#73ABFF" stroke-width="2" stroke-linecap="square"></path>
                    <g id="Oval-4">
                        <use fill="#428DFF" xlink:href="#path-37"></use>
                        <use fill="url(#linearGradient-36)" xlink:href="#path-37"></use>
                    </g>
                    <g id="Rectangle-7">
                        <use fill="#C3FBDC" xlink:href="#path-39"></use>
                        <use fill="url(#linearGradient-38)" xlink:href="#path-39"></use>
                    </g>
                    <path d="M14.4186879,4.25167145 L14.4186879,0.202460545" id="Line" stroke="#BFD8FF" stroke-width="2" stroke-linecap="square"></path>
                    <path d="M14.819207,0.521398106 C14.819207,0.521398106 15.522723,0.314236114 16.4844513,0.691707244 C17.4461796,1.06917837 17.2311222,1.34278398 18.9251146,1.56224805 C17.6387794,2.74221341 17.2037987,2.33957854 16.0519571,2.50861269 C14.997164,2.66340488 14.819207,3.35584574 14.819207,3.35584574 L14.819207,1.69738651 L14.819207,0.521398106 Z" id="Rectangle-9" fill="#93F6D1"></path>
                    <g id="Oval-2">
                        <use fill="#7FB1FE" xlink:href="#path-41"></use>
                        <use fill="url(#linearGradient-40)" xlink:href="#path-41"></use>
                    </g>
                </g>
                <g id="balloon-copy-2" transform="translate(52.500000, 12.500000) rotate(-4.000000) translate(-52.500000, -12.500000) translate(45.000000, 1.000000)">
                    <path d="M4.43185089,19.0120012 L2.65911053,14.332124" id="Line" stroke="#73ABFF" stroke-linecap="square"></path>
                    <path d="M11.5228123,19.0120012 L9.75007196,14.332124" id="Line-Copy" stroke="#73ABFF" stroke-linecap="square" transform="translate(10.636442, 16.672063) scale(-1, 1) translate(-10.636442, -16.672063) "></path>
                    <path d="M7.08333333,19.0120012 L7.08333333,14.332124" id="Line" stroke="#73ABFF" stroke-linecap="square"></path>
                    <ellipse id="Oval-4" fill="#BDD7FF" cx="7.09096143" cy="9.16475955" rx="7.09096143" ry="7.01981582"></ellipse>
                    <path d="M3.93942301,18.3295191 L10.2424998,18.3295191 L10.2424998,20.2794679 C10.2424998,21.3563949 9.36608401,22.2294168 8.28271789,22.2294168 L5.89920496,22.2294168 C4.81684728,22.2294168 3.93942301,21.3639031 3.93942301,20.2794679 L3.93942301,18.3295191 Z" id="Rectangle-7" fill="#BDD7FF"></path>
                    <path d="M7.14399027,2.04744628 L7.14399027,0.097497442" id="Line" stroke="#BFD8FF" stroke-width="2" stroke-linecap="square"></path>
                    <path d="M7.28793258,0.251085867 C7.28793258,0.251085867 7.63391444,0.151324384 8.10688245,0.333100391 C8.57985047,0.514876399 8.47408746,0.646634646 9.3071754,0.75232035 C8.67456908,1.32054763 8.46065006,1.1266537 7.89418631,1.20805424 C7.37544995,1.28259638 7.28793258,1.61605006 7.28793258,1.61605006 L7.28793258,0.817397988 L7.28793258,0.251085867 Z" id="Rectangle-9" fill="#BDD7FF"></path>
                    <ellipse id="Oval-2" fill="#D9E8FF" cx="7.189447" cy="9.16475955" rx="2.46213938" ry="7.01981582"></ellipse>
                </g>
                <g id="balloon-copy-3" transform="translate(11.500000, 75.000000) rotate(-4.000000) translate(-11.500000, -75.000000) translate(2.000000, 59.000000)">
                    <path d="M5.92588723,26.7293278 L3.55553234,20.1498009" id="Line" stroke="#73ABFF" stroke-linecap="square"></path>
                    <path d="M15.4073068,26.7293278 L13.0369519,20.1498009" id="Line-Copy" stroke="#73ABFF" stroke-linecap="square" transform="translate(14.222129, 23.439564) scale(-1, 1) translate(-14.222129, -23.439564) "></path>
                    <path d="M9.47121994,26.7293278 L9.47121994,20.1498009" id="Line" stroke="#73ABFF" stroke-linecap="square"></path>
                    <ellipse id="Oval-4" fill="#BDD7FF" cx="9.48141956" cy="12.8849067" rx="9.48141956" ry="9.86929025"></ellipse>
                    <path d="M5.26745531,25.7698134 L13.6953838,25.7698134 L13.6953838,28.5112829 C13.6953838,30.0253547 12.4698906,31.2527524 10.9590769,31.2527524 L8.00376218,31.2527524 C6.49254162,31.2527524 5.26745531,30.0222739 5.26745531,28.5112829 L5.26745531,25.7698134 Z" id="Rectangle-7" fill="#BDD7FF"></path>
                    <path d="M9.10416667,2.87854299 L9.10416667,0.137073476" id="Line" stroke="#BFD8FF" stroke-linecap="square"></path>
                    <path d="M8.95505412,0.295770232 C8.95505412,0.295770232 9.41767111,0.155513699 10.050083,0.411075984 C10.6824948,0.666638269 10.5410777,0.851879651 11.6550108,1.00046516 C10.8091444,1.79934651 10.5231104,1.52674741 9.76568412,1.64118995 C9.07207477,1.74599014 8.95505412,2.21479889 8.95505412,2.21479889 L8.95505412,1.09195902 L8.95505412,0.295770232 Z" id="Rectangle-9" fill="#BDD7FF"></path>
                    <ellipse id="Oval-2" fill="#D9E8FF" cx="9.61310595" cy="12.8849067" rx="3.29215957" ry="9.86929025"></ellipse>
                </g>
            </g>
            <polygon id="Path-10" fill="#BDD7FF" points="349.73139 161.06745 348.557024 164.244726 357.958132 173.578131 358.756615 167.452742"></polygon>
            <polygon id="Path-11" fill="#FFFFFF" points="337.877592 213.076562 339.853614 214.5 335.667672 219.664012 334 218.407149"></polygon>
        </g>
    </g>
</svg>